<?xml version="1.0" encoding="utf-8"?>
<!-- Generator: Adobe Illustrator 18.0.0, SVG Export Plug-In . SVG Version: 6.00 Build 0)  -->
<!DOCTYPE svg PUBLIC "-//W3C//DTD SVG 1.1//EN" "http://www.w3.org/Graphics/SVG/1.1/DTD/svg11.dtd">
<svg version="1.1" id="Capa_1" xmlns="http://www.w3.org/2000/svg" xmlns:xlink="http://www.w3.org/1999/xlink" x="0px" y="0px"
	 viewBox="0 0 960 150" enable-background="new 0 0 960 150" xml:space="preserve">
<rect fill="#FFFFFF" stroke="#000000" stroke-miterlimit="10" width="960" height="150"/>
<linearGradient id="SVGID_1_" gradientUnits="userSpaceOnUse" x1="202.8342" y1="-200.7308" x2="754.6108" y2="351.0458">
	<stop  offset="8.008738e-02" style="stop-color:#BA95F2"/>
	<stop  offset="1" style="stop-color:#15DBB3"/>
</linearGradient>
<rect x="2.5" y="-0.4" fill="url(#SVGID_1_)" width="952.4" height="151.1"/>
<g>
	<g>
		<path fill="#FFFFFF" d="M147.2,64.9h-7v-1.6c0-3.2-1.4-5.9-4.9-5.9c-3.8,0-4.7,3.1-4.7,6.3c0,3.8,0.3,5,4,6.5l5.3,2.1
			c6.1,2.3,7.3,6.2,7.3,13.3c0,8.2-3,14.3-12,14.3c-6.8,0-11.9-5-11.9-11.5v-2.6h7v2.2c0,2.5,1.4,5,4.9,5c4.7,0,5-2.8,5-7.2
			c0-5.2-0.6-6-4-7.4l-5-2c-6-2.5-7.6-6.4-7.6-12.5c0-7.4,4-13.3,11.9-13.3c7,0,11.6,5.6,11.6,11V64.9z"/>
		<path fill="#FFFFFF" d="M156.9,57.4h-8.1v-6.5h23.1v6.5h-8.1v42h-7V57.4z"/>
		<path fill="#FFFFFF" d="M173.8,62.3c0-7.9,6-11.9,11.7-11.9c5.7,0,11.7,4,11.7,11.9V88c0,7.9-6,11.9-11.7,11.9
			c-5.7,0-11.7-4-11.7-11.9V62.3z M180.7,88c0,3.3,2.2,4.9,4.7,4.9c2.5,0,4.7-1.6,4.7-4.9V62.3c0-3.3-2.2-4.9-4.7-4.9
			c-2.5,0-4.7,1.6-4.7,4.9V88z"/>
		<path fill="#FFFFFF" d="M203.2,50.9h10.4c3.8,0,6.6,0.9,9,3.4c2.4,2.5,3.1,5.6,3.1,11.4c0,4.2-0.3,7.1-2,9.8c-1.9,3.1-5,5-10.1,5
			h-3.5v19h-7V50.9z M210.2,73.9h3.3c5.7,0,5.7-3.3,5.7-8.2c0-4.6,0-8.3-5.5-8.3h-3.6V73.9z"/>
		<path fill="#FFFFFF" d="M243.7,50.9h10.2c9,0,12.3,5.9,12.3,12.3v1.8c0,5.2-1.7,7.1-4.8,9c3.3,1.6,4.8,4.5,4.8,9.6v2.7
			c0,8.5-4,13.2-13,13.2h-9.5V50.9z M250.7,70.8h3.1c4.6,0,5.9-2.4,5.9-6.8c0-4.3-1.6-6.5-6.1-6.5h-2.9V70.8z M250.7,92.5h3
			c5.6,0,6-3.4,6-8.2c0-4.8-0.9-7.4-5.9-7.4h-3.1V92.5z"/>
		<path fill="#FFFFFF" d="M295.3,88.5c0,6.3-5,11.3-11.3,11.3c-6.2,0-11.3-5-11.3-11.3V50.9h7v37c0,3.4,1.8,5,4.3,5
			c2.5,0,4.3-1.6,4.3-5v-37h7V88.5z"/>
		<path fill="#FFFFFF" d="M301.8,50.9h7v41.6h13.8v7h-20.7V50.9z"/>
		<path fill="#FFFFFF" d="M327.1,50.9h7v41.6h13.8v7h-20.7V50.9z"/>
	</g>
	<g>
		<path fill="#FFFFFF" d="M80.7,45.9c-16.1,0-29.2,13.1-29.2,29.2s13.1,29.2,29.2,29.2S110,91.3,110,75.2S96.9,45.9,80.7,45.9z
			 M94,81.5c0,4.5-2.2,8.7-6,11.2l-0.3,0.3c-4.4,2.8-10.1,2.8-14.4-0.2c-3.6-2.5-5.7-6.6-5.7-11c0-5.2,0-11.1,0-14.4
			c0-1.5,0-3.1,0-4.7c0-1.1,0.9-2.1,2.1-2.1c1.1,0,2,0.9,2.1,2.1c0.1,2.2,0,4.5,0,6.8c0,0.9,0,1.7,0,2.6c0,0.4,0.3,0.7,0.7,0.7
			c0.3,0,0.7-0.3,0.7-0.7V58.8c0-1.1,0.9-2.1,2.1-2.1c1.1,0,2.1,0.9,2.1,2.1V72c0,0.4,0.3,0.7,0.7,0.7c0.3,0,0.7-0.3,0.7-0.7V57.3
			c0-1.1,0.9-2.1,2.1-2.1c1.1,0,2.1,0.9,2.1,2.1V72c0,0.3,0.3,0.7,0.7,0.7c0.3,0,0.6-0.3,0.6-0.7c0-0.2,0-0.4,0-0.7
			c0-3-0.1-7.3,0-10.9c0-1.1,0.9-2.1,2.1-2.1h0.1c1.1,0,2.1,0.9,2.1,2.1c0,2.9,0,6.6,0,9.2c0,2.4,0,7.9,0,10.2
			c0,0.3,0.3,0.6,0.5,0.6c0.3,0,0.6-0.3,0.5-0.6c0-0.4,0-2.4,0-4.3c0-1.5,1.1-2.6,2.6-2.6c1.3,0.1,2.4,1.3,2.4,2.7V81.5z"/>
	</g>
</g>
</svg>
