<?xml version="1.0" encoding="utf-8"?>
<!-- Generator: Adobe Illustrator 21.1.0, SVG Export Plug-In . SVG Version: 6.00 Build 0)  -->
<svg version="1.1" id="Layer_1" xmlns="http://www.w3.org/2000/svg" xmlns:xlink="http://www.w3.org/1999/xlink" x="0px" y="0px"
	 viewBox="0 0 16 16" style="enable-background:new 0 0 16 16;" xml:space="preserve">
<style type="text/css">
	.st0{fill:#FFFFFF;}
</style>
<path class="st0" d="M8,0C3.6,0,0,3.6,0,8s3.6,8,8,8s8-3.6,8-8S12.4,0,8,0z M9,5.9c0-0.7,0.7-1.2,1.3-1.5C10.8,4.2,11.4,4,11.4,4
	c0.3-0.1,0.5,0.1,0.6,0.4S11.9,4.9,11.6,5c-0.3,0.1-0.6,0.2-0.9,0.3C10.9,5.5,11,5.7,11,6c0,0.6-0.4,1-1,1S9,6.6,9,5.9
	C9,6,9,6,9,5.9L9,5.9z M4,4.4C4.1,4.1,4.4,3.9,4.6,4c0,0,0.6,0.1,1.1,0.4C6.3,4.7,7,5.2,7,5.9C7,6,7,6,7,6c0,0.6-0.4,1-1,1
	S5,6.6,5,6c0-0.3,0.1-0.5,0.3-0.7C5,5.2,4.7,5.1,4.4,5C4.1,4.9,3.9,4.6,4,4.4L4,4.4z M11,12.2c-0.6-1-1.7-1.7-3-1.7s-2.4,0.7-3,1.7
	l-1.3-0.8C4.6,10,6.2,9,8,9s3.4,1,4.3,2.4L11,12.2z"/>
</svg>
