<?xml version="1.0" encoding="utf-8"?>
<!-- Generator: Adobe Illustrator 21.1.0, SVG Export Plug-In . SVG Version: 6.00 Build 0)  -->
<svg version="1.1" id="Layer_1" xmlns="http://www.w3.org/2000/svg" xmlns:xlink="http://www.w3.org/1999/xlink" x="0px" y="0px"
	 viewBox="0 0 16 16" style="enable-background:new 0 0 16 16;" xml:space="preserve">
<style type="text/css">
	.st0{fill:#FFFFFF;}
</style>
<path class="st0" d="M8,0C3.6,0,0,3.6,0,8s3.6,8,8,8s8-3.6,8-8S12.4,0,8,0z M11,4c0.6,0,1,0.4,1,1s-0.4,1-1,1s-1-0.4-1-1
	S10.4,4,11,4z M5,4c0.6,0,1,0.4,1,1S5.6,6,5,6S4,5.6,4,5S4.4,4,5,4z M10.7,12.7c-1.3,0.5-2.7-0.2-3.2-1.5c-0.3-0.8-1.1-1.2-1.9-0.9
	c-0.7,0.3-1.1,1-1,1.7h-1c-0.1-1.1,0.5-2.3,1.6-2.7C6.6,8.9,8,9.5,8.5,10.8c0.3,0.8,1.1,1.2,1.9,0.9c0.7-0.3,1.1-1,1-1.7h1
	C12.5,11.1,11.9,12.3,10.7,12.7L10.7,12.7z"/>
</svg>
