<?xml version="1.0" encoding="utf-8"?>
<!-- Generator: Adobe Illustrator 21.1.0, SVG Export Plug-In . SVG Version: 6.00 Build 0)  -->
<svg version="1.1" id="Layer_1" xmlns="http://www.w3.org/2000/svg" xmlns:xlink="http://www.w3.org/1999/xlink" x="0px" y="0px"
	 viewBox="0 0 16 16" style="enable-background:new 0 0 16 16;" xml:space="preserve">
<style type="text/css">
	.st0{fill:#FFFFFF;}
</style>
<path class="st0" d="M8,0C3.6,0,0,3.6,0,8s3.6,8,8,8s8-3.6,8-8S12.4,0,8,0z M10,12H6v-1h4V12z M11,4c0.6,0,1,0.4,1,1s-0.4,1-1,1
	s-1-0.4-1-1S10.4,4,11,4z M5,4c0.6,0,1,0.4,1,1S5.6,6,5,6S4,5.6,4,5S4.4,4,5,4z"/>
</svg>
