<?xml version="1.0" encoding="utf-8"?>
<!-- Generator: Adobe Illustrator 21.1.0, SVG Export Plug-In . SVG Version: 6.00 Build 0)  -->
<svg version="1.1" id="Capa_1" xmlns="http://www.w3.org/2000/svg" xmlns:xlink="http://www.w3.org/1999/xlink" x="0px" y="0px"
	 viewBox="0 0 884 854" style="enable-background:new 0 0 884 854;" xml:space="preserve">
<style type="text/css">
	.st0{fill:#FFFFFF;}
</style>
<g>
	<g>
		<path class="st0" d="M187.3,682.4h-21.7v-4.9c0-10-4.3-18.3-15.3-18.3c-11.9,0-14.7,9.6-14.7,19.6c0,11.7,1.1,15.7,12.3,20.2
			l16.6,6.6c19.1,7.2,22.7,19.3,22.7,41.5c0,25.5-9.4,44.4-37.4,44.4c-21,0-37-15.5-37-35.9v-8.1h21.7v6.8c0,7.9,4.3,15.5,15.3,15.5
			c14.7,0,15.7-8.7,15.7-22.5c0-16.2-1.9-18.7-12.5-23l-15.5-6.4c-18.7-7.7-23.6-20-23.6-38.9c0-23,12.3-41.5,37.2-41.5
			c21.7,0,36.1,17.4,36.1,34.2L187.3,682.4L187.3,682.4z"/>
		<path class="st0" d="M217.7,659.2h-25.1v-20.4h71.9v20.4h-25.1v131h-21.7L217.7,659.2L217.7,659.2z"/>
		<path class="st0" d="M270.2,674.5c0-24.7,18.7-37,36.4-37c17.6,0,36.4,12.3,36.4,37v79.9c0,24.7-18.7,37-36.4,37
			c-17.6,0-36.4-12.3-36.4-37V674.5z M291.9,754.4c0,10.4,6.8,15.3,14.7,15.3s14.7-4.9,14.7-15.3v-79.9c0-10.4-6.8-15.3-14.7-15.3
			s-14.7,4.9-14.7,15.3V754.4z"/>
		<path class="st0" d="M362.1,638.8h32.5c11.9,0,20.6,2.8,28.1,10.6c7.4,7.9,9.8,17.4,9.8,35.5c0,13.2-1.1,22.1-6.2,30.4
			c-6,9.8-15.5,15.7-31.5,15.7h-11.1v59.1H362V638.8H362.1z M383.7,710.6h10.4c17.6,0,17.9-10.4,17.9-25.5c0-14.2,0-25.9-17-25.9
			h-11.3L383.7,710.6L383.7,710.6z"/>
		<path class="st0" d="M488.1,638.8h31.7c28.1,0,38.5,18.5,38.5,38.3v5.5c0,16.2-5.3,22.1-14.9,28.1c10.2,4.9,14.9,14,14.9,29.8v8.5
			c0,26.4-12.5,41.2-40.6,41.2h-29.6L488.1,638.8L488.1,638.8z M509.8,700.9h9.8c14.5,0,18.3-7.4,18.3-21.3
			c0-13.4-4.9-20.4-19.1-20.4h-8.9L509.8,700.9L509.8,700.9z M509.8,768.5h9.4c17.4,0,18.7-10.6,18.7-25.5c0-15.1-2.8-23-18.5-23
			h-9.6L509.8,768.5L509.8,768.5z"/>
		<path class="st0" d="M648.9,756.1c0,19.8-15.7,35.3-35.1,35.3s-35.1-15.5-35.1-35.3V638.8h21.7V754c0,10.6,5.7,15.7,13.4,15.7
			s13.4-5.1,13.4-15.7V638.8h21.7L648.9,756.1L648.9,756.1z"/>
		<path class="st0" d="M669.3,638.8H691v129.7h42.9v21.7h-64.6L669.3,638.8L669.3,638.8z"/>
		<path class="st0" d="M747.9,638.8h21.7v129.7h42.9v21.7h-64.6L747.9,638.8L747.9,638.8z"/>
	</g>
	<g>
		<path class="st0" d="M461.7,106.4c-128.3,0-232.3,104-232.3,232.3s104,232.2,232.3,232.2S694,466.9,694,338.6
			S589.9,106.4,461.7,106.4z M566.8,388.9c0,35.7-17.9,69.4-47.8,88.8l-2.6,2.1c-35.2,22.6-79.9,22.1-114.6-1.6
			c-28.4-20-45.2-52.6-45.2-87.3c0-41,0-88.3,0-114.1c0-12.1,0-24.7,0-37.3c0-8.9,7.4-16.3,16.3-16.3c8.9,0,15.8,7.4,16.3,16.3
			c0.5,17.3,0,35.7,0,54.1c0,6.8,0,13.7,0,20.5c0,3.2,2.1,5.3,5.3,5.3c2.6,0,5.3-2.6,5.3-5.3V208.7c0-8.9,7.4-16.3,16.3-16.3
			s16.3,7.4,16.3,16.3v104.6c0,3.2,2.1,5.3,5.3,5.3c2.6,0,5.3-2.6,5.3-5.3V197.1c0-8.9,7.4-16.3,16.3-16.3c8.9,0,16.3,7.4,16.3,16.3
			v116.2c0,2.6,2.1,5.3,5.3,5.3c2.6,0,4.7-2.6,4.7-5.3c0-1.6,0-3.2,0-5.3c0-23.7-0.5-58.3,0-86.2c0-8.9,7.4-16.3,16.3-16.3h0.5
			c8.9,0,16.3,7.4,16.3,16.3c0,23.1,0,52.6,0,73.1c0,19.4,0,63.1,0,80.9c0,2.6,2.1,4.7,4.2,4.7c2.6,0,4.7-2.1,4.2-4.7
			c0-3.2,0-19.4,0-34.2c0-11.6,8.9-21,20.5-21c10.5,0.5,19.4,10,19.4,21.6v46.7H566.8z"/>
	</g>
</g>
</svg>
