<?xml version="1.0" encoding="utf-8"?>
<!-- Generator: Adobe Illustrator 21.1.0, SVG Export Plug-In . SVG Version: 6.00 Build 0)  -->
<svg version="1.1" id="Layer_1" xmlns="http://www.w3.org/2000/svg" xmlns:xlink="http://www.w3.org/1999/xlink" x="0px" y="0px"
	 viewBox="0 0 16 16" style="enable-background:new 0 0 16 16;" xml:space="preserve">
<style type="text/css">
	.st0{fill:#FFFFFF;}
</style>
<path class="st0" d="M8,0C3.6,0,0,3.6,0,8s3.6,8,8,8s8-3.6,8-8S12.4,0,8,0z M5,7C4.4,7,4,6.3,4,5.5S4.4,4,5,4s1,0.7,1,1.5S5.6,7,5,7
	z M8,13c-1.1,0-2-0.9-2-2s0.9-2,2-2s2,0.9,2,2S9.1,13,8,13z M11,7c-0.6,0-1-0.7-1-1.5S10.4,4,11,4s1,0.7,1,1.5S11.6,7,11,7z"/>
</svg>
